<?xml version="1.0" encoding="utf-8"?>
<!-- Generator: Adobe Illustrator 23.0.1, SVG Export Plug-In . SVG Version: 6.00 Build 0)  -->
<svg version="1.1" id="bc812f07-65cf-4d9b-b76c-8815e86162f5"
	 xmlns="http://www.w3.org/2000/svg" xmlns:xlink="http://www.w3.org/1999/xlink" x="0px" y="0px" viewBox="0 0 756.5 771.2"
	 style="enable-background:new 0 0 756.5 771.2;" xml:space="preserve">
<style type="text/css">
	.st0{fill:#E6E6E6;}
	.st1{fill:#FFFFFF;}
	.st2{fill:#1877F2;}
	.st3{fill:#3F3D56;}
	.st4{fill:#DEDEDE;}
	.st5{opacity:0.2;enable-background:new    ;}
	.st6{fill:#F2F2F2;}
	.st7{opacity:0.1;enable-background:new    ;}
	.st8{fill:#2F2E41;}
	.st9{opacity:0.2;fill:#DEDEDE;enable-background:new    ;}
	.st10{opacity:0.5;fill:#DEDEDE;enable-background:new    ;}
	.st11{fill:none;stroke:#3F3D56;stroke-width:2;stroke-miterlimit:10;}
</style>
<title>moments</title>
<path class="st0" d="M499.8,311c-1.5,0-2.7,1.2-2.7,2.7V496c0,1.5,1.2,2.7,2.7,2.7h254.1c1.5,0,2.7-1.2,2.7-2.7V313.6
	c0-1.5-1.2-2.7-2.7-2.7H499.8V311z"/>
<path class="st1" d="M739.8,327.3v129.6c0,1.8-1.5,3.3-3.3,3.3h-220c-0.2,0-0.3,0-0.5,0c-1.6-0.2-2.8-1.6-2.8-3.2V327.3
	c0-1.8,1.5-3.3,3.3-3.3h220C738.3,324,739.8,325.5,739.8,327.3z"/>
<circle class="st2" cx="694.2" cy="371.5" r="11.8"/>
<circle class="st3" cx="504.7" cy="317.5" r="3.9"/>
<circle class="st3" cx="748.4" cy="317.5" r="3.9"/>
<circle class="st3" cx="504.7" cy="492.1" r="3.9"/>
<circle class="st3" cx="748.4" cy="492.1" r="3.9"/>
<circle class="st4" cx="585.8" cy="403.7" r="14.2"/>
<polygon class="st3" points="587.1,446.4 584.2,446.4 585.5,401.6 "/>
<polygon class="st3" points="585.8,410.1 588.9,405.8 585.8,411.2 585.4,410.6 "/>
<polygon class="st3" points="585.5,414.5 582.3,410.1 585.5,415.5 585.8,414.9 "/>
<circle class="st4" cx="715.8" cy="403.7" r="14.2"/>
<polygon class="st3" points="717.2,446.4 714.3,446.4 715.6,401.6 "/>
<polygon class="st3" points="715.9,410.1 719,405.8 715.8,411.2 715.5,410.6 "/>
<polygon class="st3" points="715.5,414.5 712.4,410.1 715.6,415.5 715.9,414.9 "/>
<circle class="st4" cx="626.8" cy="391.4" r="20.9"/>
<polygon class="st3" points="628.9,454.4 624.6,454.4 626.5,388.2 "/>
<polygon class="st3" points="626.9,400.8 631.5,394.4 626.8,402.3 626.3,401.5 "/>
<polygon class="st3" points="626.4,407.2 621.8,400.8 626.5,408.8 627,407.9 "/>
<circle class="st4" cx="677.9" cy="383.4" r="20.9"/>
<polygon class="st3" points="679.9,446.4 675.6,446.4 677.6,380.2 "/>
<polygon class="st3" points="678,392.8 682.6,386.4 677.9,394.3 677.4,393.5 "/>
<polygon class="st3" points="677.5,399.2 672.9,392.8 677.5,400.8 678,399.9 "/>
<circle class="st4" cx="545.4" cy="383.4" r="20.9"/>
<polygon class="st3" points="547.5,446.4 543.2,446.4 545.1,380.2 "/>
<polygon class="st3" points="545.5,392.8 550.1,386.4 545.4,394.3 544.9,393.5 "/>
<polygon class="st3" points="545,399.2 540.4,392.8 545.1,400.8 545.6,399.9 "/>
<path class="st3" d="M628,460.1H516.5c-0.2,0-0.3,0-0.5,0c-1.6-0.2-2.8-1.6-2.8-3.2v-27.8c10.5-1.7,21.1-2.6,31.7-2.6
	c39.6,0,72.7,11.3,81,26.5C627.2,455.2,627.9,457.6,628,460.1z"/>
<path class="st3" d="M739.8,450.6v6.3c0,1.8-1.5,3.3-3.3,3.3H613.2c4-2.9,8.3-5.3,12.8-7.2c15.1-6.5,36.4-10.5,60-10.5
	C706.5,442.5,725.3,445.5,739.8,450.6z"/>
<path class="st0" d="M641.1,0c-0.4,0-0.9,0.1-1.2,0.3L415.6,119.6c-1.3,0.7-1.8,2.3-1.1,3.6l85.6,161c0.7,1.3,2.3,1.8,3.6,1.1
	L728,166c1.3-0.7,1.8-2.3,1.1-3.6l-85.6-161c-0.3-0.6-0.9-1.1-1.6-1.3C641.7,0,641.4,0,641.1,0z"/>
<path class="st1" d="M635.2,21.3L696,135.7c0.8,1.6,0.2,3.6-1.3,4.4l0,0L500.4,243.4c-0.1,0.1-0.3,0.1-0.4,0.2
	c-1.5,0.5-3.2-0.1-4-1.5l-60.9-114.4c-0.8-1.6-0.2-3.6,1.3-4.4l0,0L630.7,20C632.3,19.1,634.3,19.7,635.2,21.3L635.2,21.3z"/>
<ellipse transform="matrix(0.329 -0.9443 0.9443 0.329 205.3968 572.1642)" class="st2" cx="505.3" cy="141.5" rx="28.6" ry="28.6"/>
<path class="st3" d="M626,177.2l-124,65.9c-0.2,0.1-0.3,0.2-0.5,0.2l4.6-132.8c0.1-2.6,2.2-4.6,4.8-4.5c0.8,0,1.7,0.3,2.4,0.7
	l75.6,47.2l3.6,2.3L626,177.2z"/>
<polygon class="st5" points="626,177.2 583.7,199.8 588.4,158.5 588.7,155.5 588.9,154.1 592.5,156.3 "/>
<path class="st3" d="M695,140.5l-107.2,57l4.7-41.2l0.3-3l6.2-53.7c0.4-3.5,4.6-6,7.9-4.8c0.2,0.1,0.4,0.2,0.6,0.3L695,140.5z"/>
<circle class="st3" cx="423" cy="123.1" r="3.9"/>
<circle class="st3" cx="638.1" cy="8.7" r="3.9"/>
<circle class="st3" cx="505" cy="277.2" r="3.9"/>
<circle class="st3" cx="720.1" cy="162.8" r="3.9"/>
<path class="st0" d="M695.4,771.2c1.4,0.4,2.9-0.5,3.3-1.9L745.6,593c0.4-1.4-0.5-2.9-1.9-3.3l-245.5-65.3c-1.4-0.4-2.9,0.5-3.3,1.9
	L448,702.6c-0.4,1.4,0.5,2.9,1.9,3.2l0,0L695.4,771.2z"/>
<path class="st1" d="M725.9,601.9l-33.3,125.2c-0.5,1.7-2.2,2.8-4,2.3L476,672.9c-0.1,0-0.3-0.1-0.4-0.2c-1.5-0.6-2.3-2.3-1.9-3.8
	L507,543.7c0.5-1.7,2.2-2.8,4-2.3L723.6,598C725.4,598.4,726.4,600.2,725.9,601.9z"/>
<path class="st3" d="M697.3,709.4l-4.7,17.8c-0.5,1.7-2.2,2.8-4,2.3L476,672.9c-0.1,0-0.3-0.1-0.4-0.2c-1.5-0.6-2.3-2.3-1.9-3.8
	l4.7-17.8L697.3,709.4z"/>
<rect x="584" y="675.7" transform="matrix(0.2571 -0.9664 0.9664 0.2571 -234.5772 1081.2745)" class="st0" width="4" height="35"/>
<rect x="506.2" y="655" transform="matrix(0.2571 -0.9664 0.9664 0.2571 -272.3826 990.7154)" class="st0" width="4" height="35"/>
<rect x="661.8" y="696.4" transform="matrix(0.2571 -0.9664 0.9664 0.2571 -196.7719 1171.8336)" class="st0" width="4" height="35"/>
<circle class="st3" cx="501.2" cy="532.1" r="3.9"/>
<circle class="st3" cx="736.7" cy="594.7" r="3.9"/>
<circle class="st3" cx="456.4" cy="700.8" r="3.9"/>
<circle class="st3" cx="691.8" cy="763.4" r="3.9"/>
<rect x="653.4" y="692.5" transform="matrix(0.2576 -0.9663 0.9663 0.2576 -192.3497 1154.2377)" class="st3" width="3.1" height="19.5"/>
<path class="st4" d="M509.8,662.8l3.6,1.9L660.8,704l2.1-2.7c3.7-4.7,6.1-10.3,6.8-16.2c0.5-4.4,0-9.1-3.1-11.9l5-45.3L590.2,606
	l-38.3,17.1c0,0-14.8-4.2-25.6,3.7c-3.9,3-6.8,7-8.4,11.7l-1.7,5.2L509.8,662.8z"/>
<circle class="st3" cx="542.3" cy="670.7" r="18.8"/>
<circle class="st2" cx="542.3" cy="670.7" r="9.9"/>
<circle class="st3" cx="632.1" cy="694.6" r="18.8"/>
<circle class="st2" cx="632.1" cy="694.6" r="9.9"/>
<polygon class="st1" points="565.2,623.4 609.2,635.1 614.6,636.6 623.6,639 623.8,638.3 625.9,630.4 628.3,621.4 622.3,619.8 
	616.9,618.4 607.4,615.8 602,614.4 591,611.5 "/>
<polygon class="st1" points="630.8,640.9 654.1,647.1 655.3,642.5 657.4,634.6 658.8,629.5 655.4,628.6 650,627.2 635.5,623.3 "/>
<rect x="615" y="652.9" transform="matrix(0.2576 -0.9663 0.9663 0.2576 -173.645 1082.9663)" class="st3" width="5.9" height="3.1"/>
<rect x="571" y="629.4" transform="matrix(0.2576 -0.9663 0.9663 0.2576 -185.9084 1022.7422)" class="st3" width="3.1" height="5.9"/>
<path class="st3" d="M573.3,632.4l-0.3-0.1c-3.4-0.9-5.5-4.5-4.6-7.9l0,0c0.9-3.4,4.5-5.5,7.9-4.6l0.3,0.1l0,0L573.3,632.4
	L573.3,632.4z"/>
<path class="st3" d="M516.1,643.6c5.1,2,10.9-0.6,12.9-5.7c1.5-3.9,0.4-8.4-2.8-11.1c-3.9,3-6.8,7-8.4,11.7L516.1,643.6z"/>
<polygon class="st6" points="616.9,618.4 623.8,638.3 625.9,630.4 622.3,619.8 "/>
<polygon class="st6" points="650,627.2 655.3,642.5 657.4,634.6 655.4,628.6 "/>
<polygon class="st6" points="602,614.4 609.2,635.1 614.6,636.6 607.4,615.8 "/>
<polygon class="st6" points="273.5,231.3 196.1,284.7 309.6,284.7 "/>
<polygon class="st2" points="315.7,290.4 189,290.4 150.4,317 333.7,317 "/>
<polygon class="st6" points="145.8,322.3 23.4,406.7 110.6,535.4 364.2,360.5 338.3,322.3 "/>
<ellipse class="st6" cx="189.4" cy="533.3" rx="255.7" ry="12.7"/>
<ellipse class="st3" cx="50.6" cy="350.5" rx="8.7" ry="5.1"/>
<polygon class="st3" points="279.4,387.7 83.7,387.7 88.5,370.2 92.7,355.1 99.8,329.4 263.8,329.4 270.7,355.1 275.4,372.7 "/>
<polygon class="st7" points="275.4,372.7 88.5,372.7 88.5,370.2 92.7,355.1 270.7,355.1 "/>
<rect x="37.9" y="348.8" class="st4" width="25.4" height="19.9"/>
<rect x="19.6" y="358.6" class="st3" width="324.5" height="174.8"/>
<rect x="19.6" y="424.2" class="st4" width="324.5" height="43.5"/>
<ellipse class="st8" cx="181.8" cy="445.9" rx="80.4" ry="81.1"/>
<ellipse class="st3" cx="181.8" cy="445.9" rx="74.7" ry="75.4"/>
<ellipse class="st8" cx="181.8" cy="445.9" rx="56.8" ry="57.3"/>
<ellipse class="st9" cx="294.1" cy="370.6" rx="5.5" ry="5.5"/>
<ellipse class="st10" cx="310.6" cy="370.6" rx="5.5" ry="5.5"/>
<ellipse class="st2" cx="327.1" cy="370.6" rx="5.5" ry="5.5"/>
<rect x="162.3" y="333.6" class="st8" width="38.5" height="17.6"/>
<ellipse class="st11" cx="200.7" cy="312.9" rx="6.9" ry="7"/>
<ellipse class="st11" cx="179.3" cy="286.2" rx="6.9" ry="7"/>
<ellipse class="st11" cx="214.6" cy="265.8" rx="6.9" ry="7"/>
</svg>
